<mxfile host="app.diagrams.net" agent="Mozilla/5.0 (Windows NT 10.0; Win64; x64) AppleWebKit/537.36 (KHTML, like Gecko) Chrome/139.0.0.0 Safari/537.36" version="28.1.1">
  <diagram name="Página-1" id="LgOcKLOwC6VrVUnrE5rC">
    <mxGraphModel grid="0" page="1" gridSize="10" guides="1" tooltips="1" connect="1" arrows="0" fold="1" pageScale="1" pageWidth="827" pageHeight="1169" background="light-dark(#FFFFFF,#353535)" math="0" shadow="0">
      <root>
        <mxCell id="0" />
        <mxCell id="1" parent="0" />
        <mxCell id="3Q1ihhyjjOIdXXcU0djZ-1" value="&lt;h1&gt;&lt;font style=&quot;font-size: 18px;&quot;&gt;Diagrama de casos de uso UML&lt;/font&gt;&lt;/h1&gt;" style="rounded=0;whiteSpace=wrap;html=1;fontFamily=Courier New;" vertex="1" parent="1">
          <mxGeometry x="244" y="18" width="296" height="80" as="geometry" />
        </mxCell>
        <mxCell id="3Q1ihhyjjOIdXXcU0djZ-3" value="Autores" style="rounded=1;whiteSpace=wrap;html=1;fontStyle=1;fontSize=19;arcSize=11;fontFamily=Courier New;" vertex="1" parent="1">
          <mxGeometry x="50" y="110" width="140" height="80" as="geometry" />
        </mxCell>
        <mxCell id="3Q1ihhyjjOIdXXcU0djZ-5" value="&lt;font style=&quot;font-size: 15px;&quot;&gt;Protótipo&lt;br&gt;(Sensor de Ruído anômalo)&lt;/font&gt;" style="rounded=1;whiteSpace=wrap;html=1;fontFamily=Courier New;fontStyle=1" vertex="1" parent="1">
          <mxGeometry x="50" y="225" width="140" height="70" as="geometry" />
        </mxCell>
        <mxCell id="3Q1ihhyjjOIdXXcU0djZ-6" value="" style="endArrow=classic;html=1;rounded=0;" edge="1" parent="1">
          <mxGeometry width="50" height="50" relative="1" as="geometry">
            <mxPoint x="119.75" y="190" as="sourcePoint" />
            <mxPoint x="119.75" y="220" as="targetPoint" />
          </mxGeometry>
        </mxCell>
        <mxCell id="3Q1ihhyjjOIdXXcU0djZ-8" value="&lt;span style=&quot;font-size: 15px;&quot;&gt;App&lt;/span&gt;" style="rounded=1;whiteSpace=wrap;html=1;fontStyle=1;fontFamily=Courier New;" vertex="1" parent="1">
          <mxGeometry x="50" y="330" width="140" height="70" as="geometry" />
        </mxCell>
        <mxCell id="3Q1ihhyjjOIdXXcU0djZ-10" value="" style="endArrow=classic;html=1;rounded=0;" edge="1" parent="1">
          <mxGeometry width="50" height="50" relative="1" as="geometry">
            <mxPoint x="119.75" y="295" as="sourcePoint" />
            <mxPoint x="119.75" y="325" as="targetPoint" />
          </mxGeometry>
        </mxCell>
        <mxCell id="3Q1ihhyjjOIdXXcU0djZ-11" value="&lt;span style=&quot;font-size: 15px;&quot;&gt;Gerente&lt;/span&gt;" style="rounded=1;whiteSpace=wrap;html=1;fontStyle=1;fontFamily=Courier New;" vertex="1" parent="1">
          <mxGeometry x="50" y="430" width="140" height="70" as="geometry" />
        </mxCell>
        <mxCell id="3Q1ihhyjjOIdXXcU0djZ-12" value="&lt;span style=&quot;font-size: 15px;&quot;&gt;Operadores&lt;/span&gt;" style="rounded=1;whiteSpace=wrap;html=1;fontStyle=1;fontFamily=Courier New;" vertex="1" parent="1">
          <mxGeometry x="50" y="540" width="140" height="70" as="geometry" />
        </mxCell>
        <mxCell id="3Q1ihhyjjOIdXXcU0djZ-13" value="" style="endArrow=classic;html=1;rounded=0;" edge="1" parent="1">
          <mxGeometry width="50" height="50" relative="1" as="geometry">
            <mxPoint x="119.75" y="400" as="sourcePoint" />
            <mxPoint x="119.75" y="430" as="targetPoint" />
          </mxGeometry>
        </mxCell>
        <mxCell id="3Q1ihhyjjOIdXXcU0djZ-14" value="" style="endArrow=classic;html=1;rounded=0;" edge="1" parent="1">
          <mxGeometry width="50" height="50" relative="1" as="geometry">
            <mxPoint x="119.75" y="500" as="sourcePoint" />
            <mxPoint x="119.75" y="530" as="targetPoint" />
          </mxGeometry>
        </mxCell>
        <mxCell id="3Q1ihhyjjOIdXXcU0djZ-15" value="Protótipo" style="swimlane;startSize=30;horizontal=1;childLayout=treeLayout;horizontalTree=0;sortEdges=1;resizable=0;containerType=tree;fontSize=14;" vertex="1" parent="1">
          <mxGeometry x="241" y="115" width="299" height="230" as="geometry" />
        </mxCell>
        <mxCell id="3Q1ihhyjjOIdXXcU0djZ-16" value="&lt;font face=&quot;Fire Code&quot;&gt;Sensor detectar um sinal acima do limites em db&lt;/font&gt;" style="whiteSpace=wrap;html=1;fontSize=13;" vertex="1" parent="3Q1ihhyjjOIdXXcU0djZ-15">
          <mxGeometry x="79.5" y="50" width="140" height="60" as="geometry" />
        </mxCell>
        <mxCell id="3Q1ihhyjjOIdXXcU0djZ-17" value="&lt;font face=&quot;Fire Code&quot;&gt;Detectar um sinal de ruído&lt;/font&gt;&lt;div&gt;&lt;font face=&quot;Fire Code&quot; style=&quot;color: light-dark(rgb(0, 0, 0), rgb(51, 255, 51));&quot;&gt;#Arduino&lt;/font&gt;&lt;/div&gt;" style="whiteSpace=wrap;html=1;" vertex="1" parent="3Q1ihhyjjOIdXXcU0djZ-15">
          <mxGeometry x="20" y="160" width="110" height="48.13" as="geometry" />
        </mxCell>
        <mxCell id="3Q1ihhyjjOIdXXcU0djZ-18" value="" style="edgeStyle=elbowEdgeStyle;elbow=vertical;html=1;rounded=1;curved=0;sourcePerimeterSpacing=0;targetPerimeterSpacing=0;startSize=6;endSize=6;" edge="1" parent="3Q1ihhyjjOIdXXcU0djZ-15" source="3Q1ihhyjjOIdXXcU0djZ-16" target="3Q1ihhyjjOIdXXcU0djZ-17">
          <mxGeometry relative="1" as="geometry" />
        </mxCell>
        <mxCell id="3Q1ihhyjjOIdXXcU0djZ-19" value="&lt;font face=&quot;Fire Code&quot;&gt;Enviar aviso&lt;/font&gt;&lt;div&gt;&lt;font face=&quot;Fire Code&quot; style=&quot;color: light-dark(rgb(0, 0, 0), rgb(51, 255, 51));&quot;&gt;#APP&lt;/font&gt;&lt;/div&gt;" style="whiteSpace=wrap;html=1;" vertex="1" parent="3Q1ihhyjjOIdXXcU0djZ-15">
          <mxGeometry x="170" y="160" width="109" height="50" as="geometry" />
        </mxCell>
        <mxCell id="3Q1ihhyjjOIdXXcU0djZ-20" value="" style="edgeStyle=elbowEdgeStyle;elbow=vertical;html=1;rounded=1;curved=0;sourcePerimeterSpacing=0;targetPerimeterSpacing=0;startSize=6;endSize=6;" edge="1" parent="3Q1ihhyjjOIdXXcU0djZ-15" source="3Q1ihhyjjOIdXXcU0djZ-16" target="3Q1ihhyjjOIdXXcU0djZ-19">
          <mxGeometry relative="1" as="geometry" />
        </mxCell>
        <mxCell id="3Q1ihhyjjOIdXXcU0djZ-28" value="&lt;font face=&quot;Fire Code&quot;&gt;Login&lt;/font&gt;" style="html=1;whiteSpace=wrap;" vertex="1" parent="1">
          <mxGeometry x="335.5" y="394" width="110" height="50" as="geometry" />
        </mxCell>
        <mxCell id="3Q1ihhyjjOIdXXcU0djZ-29" style="edgeStyle=orthogonalEdgeStyle;rounded=0;orthogonalLoop=1;jettySize=auto;html=1;entryX=0.422;entryY=0.016;entryDx=0;entryDy=0;entryPerimeter=0;exitX=0.458;exitY=0.998;exitDx=0;exitDy=0;exitPerimeter=0;" edge="1" parent="1" source="3Q1ihhyjjOIdXXcU0djZ-17">
          <mxGeometry relative="1" as="geometry">
            <Array as="points">
              <mxPoint x="345" y="323" />
              <mxPoint x="345" y="369" />
              <mxPoint x="384" y="369" />
            </Array>
            <mxPoint x="345" y="322.33" as="sourcePoint" />
            <mxPoint x="383.92" y="394" as="targetPoint" />
          </mxGeometry>
        </mxCell>
        <mxCell id="3Q1ihhyjjOIdXXcU0djZ-31" style="edgeStyle=orthogonalEdgeStyle;rounded=0;orthogonalLoop=1;jettySize=auto;html=1;exitX=0.5;exitY=1;exitDx=0;exitDy=0;entryX=0.744;entryY=0.043;entryDx=0;entryDy=0;entryPerimeter=0;" edge="1" parent="1">
          <mxGeometry relative="1" as="geometry">
            <Array as="points">
              <mxPoint x="464" y="369" />
              <mxPoint x="416" y="369" />
              <mxPoint x="416" y="377" />
              <mxPoint x="416" y="377" />
            </Array>
            <mxPoint x="464.5" y="322.85" as="sourcePoint" />
            <mxPoint x="416.34" y="394" as="targetPoint" />
          </mxGeometry>
        </mxCell>
        <mxCell id="3Q1ihhyjjOIdXXcU0djZ-32" value="&lt;font face=&quot;Fire Code&quot;&gt;Consultar Máquinas&lt;/font&gt;" style="html=1;whiteSpace=wrap;" vertex="1" parent="1">
          <mxGeometry x="337" y="458" width="110" height="50" as="geometry" />
        </mxCell>
        <mxCell id="3Q1ihhyjjOIdXXcU0djZ-33" value="&lt;font face=&quot;Fire Code&quot;&gt;Relatar Problema&amp;nbsp;&lt;/font&gt;⚠️" style="html=1;whiteSpace=wrap;" vertex="1" parent="1">
          <mxGeometry x="337" y="526" width="110" height="50" as="geometry" />
        </mxCell>
        <mxCell id="3Q1ihhyjjOIdXXcU0djZ-34" value="Usuario" style="swimlane;childLayout=stackLayout;horizontal=1;startSize=50;horizontalStack=0;rounded=1;fontSize=14;fontStyle=0;strokeWidth=2;resizeParent=0;resizeLast=1;shadow=0;dashed=0;align=center;arcSize=4;whiteSpace=wrap;html=1;fontFamily=Courier New;" vertex="1" parent="1">
          <mxGeometry x="610" y="180" width="160" height="160" as="geometry" />
        </mxCell>
        <mxCell id="3Q1ihhyjjOIdXXcU0djZ-35" value="id_usuario: int&lt;div&gt;nome: string&lt;/div&gt;&lt;div&gt;email: string&lt;/div&gt;&lt;div&gt;senha: string&amp;nbsp;&lt;/div&gt;&lt;div&gt;tipo_usuario: string (Gerente, operador etc)&lt;/div&gt;&lt;div&gt;&lt;br&gt;&lt;/div&gt;" style="align=left;strokeColor=none;fillColor=none;spacingLeft=4;spacingRight=4;fontSize=12;verticalAlign=top;resizable=0;rotatable=0;part=1;html=1;whiteSpace=wrap;fontFamily=Courier New;" vertex="1" parent="3Q1ihhyjjOIdXXcU0djZ-34">
          <mxGeometry y="50" width="160" height="110" as="geometry" />
        </mxCell>
        <mxCell id="3Q1ihhyjjOIdXXcU0djZ-36" value="&lt;h1&gt;&lt;font style=&quot;font-size: 18px;&quot;&gt;Diagrama de classes&lt;/font&gt;&lt;/h1&gt;" style="rounded=0;whiteSpace=wrap;html=1;fontFamily=Courier New;" vertex="1" parent="1">
          <mxGeometry x="590" y="100" width="190" height="60" as="geometry" />
        </mxCell>
        <mxCell id="3Q1ihhyjjOIdXXcU0djZ-53" value="Sinal" style="swimlane;childLayout=stackLayout;horizontal=1;startSize=50;horizontalStack=0;rounded=1;fontSize=14;fontStyle=0;strokeWidth=2;resizeParent=0;resizeLast=1;shadow=0;dashed=0;align=center;arcSize=4;whiteSpace=wrap;html=1;fontFamily=Courier New;" vertex="1" parent="1">
          <mxGeometry x="610" y="360" width="160" height="140" as="geometry" />
        </mxCell>
        <mxCell id="3Q1ihhyjjOIdXXcU0djZ-54" value="&lt;div&gt;id_sinal: int&lt;/div&gt;&lt;div&gt;id_maquina: int&lt;/div&gt;&lt;div&gt;nivel_ruido: float&lt;/div&gt;&lt;div&gt;horario: datetime&lt;/div&gt;&lt;div&gt;status: string&lt;/div&gt;&lt;div&gt;&lt;br&gt;&lt;/div&gt;" style="align=left;strokeColor=none;fillColor=none;spacingLeft=4;spacingRight=4;fontSize=12;verticalAlign=top;resizable=0;rotatable=0;part=1;html=1;whiteSpace=wrap;fontFamily=Courier New;" vertex="1" parent="3Q1ihhyjjOIdXXcU0djZ-53">
          <mxGeometry y="50" width="160" height="110" as="geometry" />
        </mxCell>
        <mxCell id="3Q1ihhyjjOIdXXcU0djZ-55" value="&lt;div&gt;&lt;br&gt;&lt;/div&gt;" style="align=left;strokeColor=none;fillColor=none;spacingLeft=4;spacingRight=4;fontSize=12;verticalAlign=top;resizable=0;rotatable=0;part=1;html=1;whiteSpace=wrap;fontFamily=Courier New;" vertex="1" parent="3Q1ihhyjjOIdXXcU0djZ-53">
          <mxGeometry y="160" width="160" height="-20" as="geometry" />
        </mxCell>
        <mxCell id="3Q1ihhyjjOIdXXcU0djZ-57" value="Máquina" style="swimlane;childLayout=stackLayout;horizontal=1;startSize=50;horizontalStack=0;rounded=1;fontSize=14;fontStyle=0;strokeWidth=2;resizeParent=0;resizeLast=1;shadow=0;dashed=0;align=center;arcSize=4;whiteSpace=wrap;html=1;fontFamily=Courier New;" vertex="1" parent="1">
          <mxGeometry x="610" y="520" width="160" height="110" as="geometry" />
        </mxCell>
        <mxCell id="3Q1ihhyjjOIdXXcU0djZ-58" value="&lt;div&gt;&lt;span style=&quot;background-color: transparent; color: light-dark(rgb(0, 0, 0), rgb(255, 255, 255));&quot;&gt;id_maquina: int&lt;/span&gt;&lt;/div&gt;&lt;div&gt;&lt;span style=&quot;background-color: transparent; color: light-dark(rgb(0, 0, 0), rgb(255, 255, 255));&quot;&gt;nome_maquina: string&lt;/span&gt;&lt;/div&gt;&lt;div&gt;&lt;span style=&quot;background-color: transparent; color: light-dark(rgb(0, 0, 0), rgb(255, 255, 255));&quot;&gt;tipo_maquina: string&lt;/span&gt;&lt;/div&gt;" style="align=left;strokeColor=none;fillColor=none;spacingLeft=4;spacingRight=4;fontSize=12;verticalAlign=top;resizable=0;rotatable=0;part=1;html=1;whiteSpace=wrap;fontFamily=Courier New;" vertex="1" parent="3Q1ihhyjjOIdXXcU0djZ-57">
          <mxGeometry y="50" width="160" height="110" as="geometry" />
        </mxCell>
        <mxCell id="3Q1ihhyjjOIdXXcU0djZ-59" value="&lt;div&gt;&lt;br&gt;&lt;/div&gt;" style="align=left;strokeColor=none;fillColor=none;spacingLeft=4;spacingRight=4;fontSize=12;verticalAlign=top;resizable=0;rotatable=0;part=1;html=1;whiteSpace=wrap;fontFamily=Courier New;" vertex="1" parent="3Q1ihhyjjOIdXXcU0djZ-57">
          <mxGeometry y="160" width="160" height="-50" as="geometry" />
        </mxCell>
        <mxCell id="3Q1ihhyjjOIdXXcU0djZ-61" value="Gerente" style="swimlane;childLayout=stackLayout;horizontal=1;startSize=50;horizontalStack=0;rounded=1;fontSize=14;fontStyle=0;strokeWidth=2;resizeParent=0;resizeLast=1;shadow=0;dashed=0;align=center;arcSize=4;whiteSpace=wrap;html=1;fontFamily=Courier New;" vertex="1" parent="1">
          <mxGeometry x="610" y="660" width="160" height="110" as="geometry" />
        </mxCell>
        <mxCell id="3Q1ihhyjjOIdXXcU0djZ-62" value="&lt;div&gt;nome_gerente: string&lt;/div&gt;&lt;div&gt;&lt;br&gt;&lt;/div&gt;" style="align=left;strokeColor=none;fillColor=none;spacingLeft=4;spacingRight=4;fontSize=12;verticalAlign=top;resizable=0;rotatable=0;part=1;html=1;whiteSpace=wrap;fontFamily=Courier New;" vertex="1" parent="3Q1ihhyjjOIdXXcU0djZ-61">
          <mxGeometry y="50" width="160" height="110" as="geometry" />
        </mxCell>
        <mxCell id="3Q1ihhyjjOIdXXcU0djZ-64" value="Operador" style="swimlane;childLayout=stackLayout;horizontal=1;startSize=50;horizontalStack=0;rounded=1;fontSize=14;fontStyle=0;strokeWidth=2;resizeParent=0;resizeLast=1;shadow=0;dashed=0;align=center;arcSize=4;whiteSpace=wrap;html=1;fontFamily=Courier New;" vertex="1" parent="3Q1ihhyjjOIdXXcU0djZ-61">
          <mxGeometry y="160" width="160" height="110" as="geometry" />
        </mxCell>
        <mxCell id="3Q1ihhyjjOIdXXcU0djZ-65" value="&lt;div&gt;operador_name: string&lt;/div&gt;&lt;div&gt;&lt;br&gt;&lt;/div&gt;" style="align=left;strokeColor=none;fillColor=none;spacingLeft=4;spacingRight=4;fontSize=12;verticalAlign=top;resizable=0;rotatable=0;part=1;html=1;whiteSpace=wrap;fontFamily=Courier New;" vertex="1" parent="3Q1ihhyjjOIdXXcU0djZ-64">
          <mxGeometry y="50" width="160" height="110" as="geometry" />
        </mxCell>
        <mxCell id="3Q1ihhyjjOIdXXcU0djZ-66" value="&lt;div&gt;&lt;br&gt;&lt;/div&gt;" style="align=left;strokeColor=none;fillColor=none;spacingLeft=4;spacingRight=4;fontSize=12;verticalAlign=top;resizable=0;rotatable=0;part=1;html=1;whiteSpace=wrap;fontFamily=Courier New;" vertex="1" parent="3Q1ihhyjjOIdXXcU0djZ-64">
          <mxGeometry y="160" width="160" height="-50" as="geometry" />
        </mxCell>
        <mxCell id="3Q1ihhyjjOIdXXcU0djZ-63" value="&lt;div&gt;&lt;br&gt;&lt;/div&gt;" style="align=left;strokeColor=none;fillColor=none;spacingLeft=4;spacingRight=4;fontSize=12;verticalAlign=top;resizable=0;rotatable=0;part=1;html=1;whiteSpace=wrap;fontFamily=Courier New;" vertex="1" parent="3Q1ihhyjjOIdXXcU0djZ-61">
          <mxGeometry y="270" width="160" height="-160" as="geometry" />
        </mxCell>
        <mxCell id="3Q1ihhyjjOIdXXcU0djZ-71" value="Usuario" style="shape=rhombus;double=1;perimeter=rhombusPerimeter;whiteSpace=wrap;html=1;align=center;" vertex="1" parent="1">
          <mxGeometry x="14" y="719" width="165" height="94" as="geometry" />
        </mxCell>
        <mxCell id="3Q1ihhyjjOIdXXcU0djZ-72" value="" style="shape=flexArrow;endArrow=classic;startArrow=classic;html=1;rounded=0;entryX=0;entryY=0.5;entryDx=0;entryDy=0;exitX=1;exitY=0.5;exitDx=0;exitDy=0;" edge="1" parent="1" source="3Q1ihhyjjOIdXXcU0djZ-71" target="3Q1ihhyjjOIdXXcU0djZ-73">
          <mxGeometry width="100" height="100" relative="1" as="geometry">
            <mxPoint x="186" y="815" as="sourcePoint" />
            <mxPoint x="286" y="715" as="targetPoint" />
          </mxGeometry>
        </mxCell>
        <mxCell id="3Q1ihhyjjOIdXXcU0djZ-73" value="Maquina" style="shape=rhombus;double=1;perimeter=rhombusPerimeter;whiteSpace=wrap;html=1;align=center;" vertex="1" parent="1">
          <mxGeometry x="278" y="719" width="165" height="94" as="geometry" />
        </mxCell>
        <mxCell id="3Q1ihhyjjOIdXXcU0djZ-75" value="Máquina" style="shape=rhombus;double=1;perimeter=rhombusPerimeter;whiteSpace=wrap;html=1;align=center;" vertex="1" parent="1">
          <mxGeometry x="14" y="825" width="165" height="94" as="geometry" />
        </mxCell>
        <mxCell id="3Q1ihhyjjOIdXXcU0djZ-76" value="Sinal" style="shape=rhombus;double=1;perimeter=rhombusPerimeter;whiteSpace=wrap;html=1;align=center;" vertex="1" parent="1">
          <mxGeometry x="278" y="825" width="165" height="94" as="geometry" />
        </mxCell>
        <mxCell id="3Q1ihhyjjOIdXXcU0djZ-77" value="" style="shape=flexArrow;endArrow=classic;startArrow=classic;html=1;rounded=0;entryX=0;entryY=0.5;entryDx=0;entryDy=0;exitX=1;exitY=0.5;exitDx=0;exitDy=0;" edge="1" parent="1">
          <mxGeometry width="100" height="100" relative="1" as="geometry">
            <mxPoint x="179" y="871.83" as="sourcePoint" />
            <mxPoint x="278" y="871.83" as="targetPoint" />
          </mxGeometry>
        </mxCell>
        <mxCell id="3Q1ihhyjjOIdXXcU0djZ-78" value="Sinal" style="shape=rhombus;double=1;perimeter=rhombusPerimeter;whiteSpace=wrap;html=1;align=center;" vertex="1" parent="1">
          <mxGeometry x="278" y="927" width="165" height="94" as="geometry" />
        </mxCell>
        <mxCell id="3Q1ihhyjjOIdXXcU0djZ-79" value="Usuario" style="shape=rhombus;double=1;perimeter=rhombusPerimeter;whiteSpace=wrap;html=1;align=center;" vertex="1" parent="1">
          <mxGeometry x="14" y="927" width="165" height="94" as="geometry" />
        </mxCell>
        <mxCell id="3Q1ihhyjjOIdXXcU0djZ-80" value="" style="shape=flexArrow;endArrow=classic;startArrow=classic;html=1;rounded=0;entryX=0;entryY=0.5;entryDx=0;entryDy=0;exitX=1;exitY=0.5;exitDx=0;exitDy=0;" edge="1" parent="1">
          <mxGeometry width="100" height="100" relative="1" as="geometry">
            <mxPoint x="179" y="973.8" as="sourcePoint" />
            <mxPoint x="278" y="973.8" as="targetPoint" />
          </mxGeometry>
        </mxCell>
        <mxCell id="3Q1ihhyjjOIdXXcU0djZ-82" value="Modelo de Entidade de relacionamento" style="text;html=1;align=center;verticalAlign=middle;whiteSpace=wrap;rounded=0;fontFamily=Courier New;fontSize=17;textShadow=0;labelBackgroundColor=none;" vertex="1" parent="1">
          <mxGeometry x="111" y="673" width="254" height="54" as="geometry" />
        </mxCell>
      </root>
    </mxGraphModel>
  </diagram>
</mxfile>
